<svg id="visual" viewBox="0 0 900 600" width="900" height="600" xmlns="http://www.w3.org/2000/svg" xmlns:xlink="http://www.w3.org/1999/xlink" version="1.1"><g transform="translate(463.7388835203458 308.4697630596878)"><path d="M152.8 -249.1C206.9 -233.4 265.8 -210.4 281.3 -167.7C296.8 -125 268.9 -62.5 261.1 -4.5C253.3 53.5 265.7 107 253.1 154.8C240.5 202.6 203 244.6 156.7 249.1C110.3 253.6 55.2 220.6 10.7 202.1C-33.8 183.6 -67.7 179.7 -109.4 172.5C-151.1 165.4 -200.7 154.9 -242.3 125.6C-283.9 96.3 -317.4 48.2 -313 2.6C-308.5 -43 -266 -86 -224 -114.6C-182 -143.2 -140.5 -157.3 -103.2 -182.8C-66 -208.3 -33 -245.2 8.2 -259.3C49.3 -273.4 98.7 -264.9 152.8 -249.1" fill="#EDEDED"></path></g></svg>